<mxfile host="app.diagrams.net" modified="2024-07-05T11:08:01.677Z" agent="Mozilla/5.0 (Macintosh; Intel Mac OS X 10_15_7) AppleWebKit/537.36 (KHTML, like Gecko) Chrome/126.0.0.0 Safari/537.36" etag="qLV-401qPiKssuSMK9m0" version="24.6.4" type="github" pages="2">
  <diagram name="search mutation" id="gZSc_4lnGocoXB3jRDfR">
    <mxGraphModel dx="1041" dy="1780" grid="1" gridSize="10" guides="1" tooltips="1" connect="1" arrows="1" fold="1" page="1" pageScale="1" pageWidth="850" pageHeight="1100" math="0" shadow="0">
      <root>
        <mxCell id="0" />
        <mxCell id="1" parent="0" />
        <mxCell id="rnecAuiKQAyFrySWo9v3-1" value="&lt;b&gt;GRAPHQL&lt;/b&gt;&lt;div&gt;&lt;b&gt;SEARCH&lt;/b&gt;&lt;/div&gt;&lt;div&gt;&lt;b&gt;MUTATION&lt;/b&gt;&lt;/div&gt;" style="shape=card;whiteSpace=wrap;html=1;fillColor=#ffe6cc;strokeColor=#d79b00;" vertex="1" parent="1">
          <mxGeometry x="1074" y="-440" width="80" height="106" as="geometry" />
        </mxCell>
        <mxCell id="rnecAuiKQAyFrySWo9v3-2" value="&lt;div&gt;MONGO&lt;/div&gt;DATABASE" style="shape=cylinder3;whiteSpace=wrap;html=1;boundedLbl=1;backgroundOutline=1;size=15;" vertex="1" parent="1">
          <mxGeometry x="454" y="-540" width="80" height="80" as="geometry" />
        </mxCell>
        <mxCell id="rnecAuiKQAyFrySWo9v3-9" value="&lt;b&gt;MUTATION TYPE&lt;/b&gt;" style="rounded=0;whiteSpace=wrap;html=1;" vertex="1" parent="1">
          <mxGeometry x="639" y="-280" width="120" height="60" as="geometry" />
        </mxCell>
        <mxCell id="rnecAuiKQAyFrySWo9v3-10" value="&lt;b&gt;MUTATION&lt;/b&gt;" style="rounded=0;whiteSpace=wrap;html=1;" vertex="1" parent="1">
          <mxGeometry x="434" y="-280" width="120" height="60" as="geometry" />
        </mxCell>
        <mxCell id="rnecAuiKQAyFrySWo9v3-12" value="" style="endArrow=classic;html=1;rounded=0;exitX=0;exitY=0;exitDx=0;exitDy=55;exitPerimeter=0;dashed=1;dashPattern=1 1;" edge="1" parent="1" source="rnecAuiKQAyFrySWo9v3-8">
          <mxGeometry width="50" height="50" relative="1" as="geometry">
            <mxPoint x="644" y="-210" as="sourcePoint" />
            <mxPoint x="874" y="-250" as="targetPoint" />
          </mxGeometry>
        </mxCell>
        <mxCell id="rnecAuiKQAyFrySWo9v3-13" value="" style="endArrow=classic;html=1;rounded=0;exitX=0.03;exitY=0.552;exitDx=0;exitDy=0;exitPerimeter=0;dashed=1;dashPattern=1 1;entryX=1;entryY=0;entryDx=0;entryDy=0;" edge="1" parent="1" source="rnecAuiKQAyFrySWo9v3-1" target="rnecAuiKQAyFrySWo9v3-8">
          <mxGeometry width="50" height="50" relative="1" as="geometry">
            <mxPoint x="1054" y="-249" as="sourcePoint" />
            <mxPoint x="874" y="-250" as="targetPoint" />
          </mxGeometry>
        </mxCell>
        <mxCell id="rnecAuiKQAyFrySWo9v3-8" value="&lt;b&gt;CONTROLLER&lt;/b&gt;" style="rounded=0;whiteSpace=wrap;html=1;" vertex="1" parent="1">
          <mxGeometry x="814" y="-280" width="120" height="60" as="geometry" />
        </mxCell>
        <mxCell id="rnecAuiKQAyFrySWo9v3-14" value="" style="endArrow=classic;html=1;rounded=0;exitX=0;exitY=0.5;exitDx=0;exitDy=0;dashed=1;dashPattern=1 1;entryX=1;entryY=0.5;entryDx=0;entryDy=0;" edge="1" parent="1" source="rnecAuiKQAyFrySWo9v3-8" target="rnecAuiKQAyFrySWo9v3-9">
          <mxGeometry width="50" height="50" relative="1" as="geometry">
            <mxPoint x="1064" y="-239" as="sourcePoint" />
            <mxPoint x="944" y="-240" as="targetPoint" />
          </mxGeometry>
        </mxCell>
        <mxCell id="rnecAuiKQAyFrySWo9v3-15" value="" style="endArrow=classic;html=1;rounded=0;exitX=0;exitY=0.5;exitDx=0;exitDy=0;dashed=1;dashPattern=1 1;entryX=1;entryY=0.5;entryDx=0;entryDy=0;" edge="1" parent="1" source="rnecAuiKQAyFrySWo9v3-9" target="rnecAuiKQAyFrySWo9v3-10">
          <mxGeometry width="50" height="50" relative="1" as="geometry">
            <mxPoint x="824" y="-240" as="sourcePoint" />
            <mxPoint x="769" y="-240" as="targetPoint" />
          </mxGeometry>
        </mxCell>
        <mxCell id="rnecAuiKQAyFrySWo9v3-16" value="&lt;font style=&quot;font-size: 36px;&quot;&gt;SEARCH MUTATION&lt;/font&gt;" style="rounded=0;whiteSpace=wrap;html=1;fillColor=#f5f5f5;fontColor=#333333;strokeColor=#666666;" vertex="1" parent="1">
          <mxGeometry x="270" y="-650" width="990" height="60" as="geometry" />
        </mxCell>
        <mxCell id="rnecAuiKQAyFrySWo9v3-17" value="" style="endArrow=classic;html=1;rounded=0;exitX=0.5;exitY=0;exitDx=0;exitDy=0;dashed=1;dashPattern=1 1;entryX=0.5;entryY=1;entryDx=0;entryDy=0;entryPerimeter=0;" edge="1" parent="1" source="rnecAuiKQAyFrySWo9v3-10" target="rnecAuiKQAyFrySWo9v3-2">
          <mxGeometry width="50" height="50" relative="1" as="geometry">
            <mxPoint x="649" y="-240" as="sourcePoint" />
            <mxPoint x="564" y="-240" as="targetPoint" />
          </mxGeometry>
        </mxCell>
        <mxCell id="rnecAuiKQAyFrySWo9v3-18" value="&lt;font style=&quot;font-size: 19px;&quot;&gt;1&lt;/font&gt;" style="ellipse;whiteSpace=wrap;html=1;aspect=fixed;fillColor=#fff2cc;strokeColor=#d6b656;" vertex="1" parent="1">
          <mxGeometry x="984" y="-380" width="30" height="30" as="geometry" />
        </mxCell>
        <mxCell id="rnecAuiKQAyFrySWo9v3-19" value="&lt;font style=&quot;font-size: 19px;&quot;&gt;2&lt;/font&gt;" style="ellipse;whiteSpace=wrap;html=1;aspect=fixed;fillColor=#fff2cc;strokeColor=#d6b656;" vertex="1" parent="1">
          <mxGeometry x="774" y="-240" width="30" height="30" as="geometry" />
        </mxCell>
        <mxCell id="rnecAuiKQAyFrySWo9v3-20" value="&lt;font style=&quot;font-size: 19px;&quot;&gt;3&lt;/font&gt;" style="ellipse;whiteSpace=wrap;html=1;aspect=fixed;fillColor=#fff2cc;strokeColor=#d6b656;" vertex="1" parent="1">
          <mxGeometry x="584" y="-240" width="30" height="30" as="geometry" />
        </mxCell>
        <mxCell id="rnecAuiKQAyFrySWo9v3-21" value="&lt;font style=&quot;font-size: 19px;&quot;&gt;4&lt;/font&gt;" style="ellipse;whiteSpace=wrap;html=1;aspect=fixed;fillColor=#fff2cc;strokeColor=#d6b656;" vertex="1" parent="1">
          <mxGeometry x="504" y="-380" width="30" height="30" as="geometry" />
        </mxCell>
        <mxCell id="rnecAuiKQAyFrySWo9v3-22" value="&lt;b&gt;GRAPHQL&lt;/b&gt;&lt;div&gt;&lt;b&gt;RESPONSE&lt;/b&gt;&lt;/div&gt;" style="shape=card;whiteSpace=wrap;html=1;fillColor=#ffe6cc;strokeColor=#d79b00;" vertex="1" parent="1">
          <mxGeometry x="1084" y="-210" width="80" height="106" as="geometry" />
        </mxCell>
        <mxCell id="rnecAuiKQAyFrySWo9v3-23" value="" style="endArrow=classic;html=1;rounded=0;dashed=1;dashPattern=1 1;entryX=0;entryY=0;entryDx=0;entryDy=68;entryPerimeter=0;exitX=1;exitY=1;exitDx=0;exitDy=0;" edge="1" parent="1" source="rnecAuiKQAyFrySWo9v3-8" target="rnecAuiKQAyFrySWo9v3-22">
          <mxGeometry width="50" height="50" relative="1" as="geometry">
            <mxPoint x="894" y="-160" as="sourcePoint" />
            <mxPoint x="930" y="-270" as="targetPoint" />
          </mxGeometry>
        </mxCell>
        <mxCell id="rnecAuiKQAyFrySWo9v3-24" value="&lt;font style=&quot;font-size: 19px;&quot;&gt;5&lt;/font&gt;" style="ellipse;whiteSpace=wrap;html=1;aspect=fixed;fillColor=#fff2cc;strokeColor=#d6b656;" vertex="1" parent="1">
          <mxGeometry x="974" y="-180" width="30" height="30" as="geometry" />
        </mxCell>
      </root>
    </mxGraphModel>
  </diagram>
  <diagram id="0aXd8r9lWq4lGOq_AjFZ" name="Page-2">
    <mxGraphModel dx="1893" dy="2336" grid="1" gridSize="10" guides="1" tooltips="1" connect="1" arrows="1" fold="1" page="1" pageScale="1" pageWidth="850" pageHeight="1100" math="0" shadow="0">
      <root>
        <mxCell id="0" />
        <mxCell id="1" parent="0" />
        <mxCell id="1sHW3_Qjd_t1mg6l4qtw-1" value="&lt;b&gt;GRAPHQL&lt;/b&gt;&lt;div&gt;&lt;b&gt;SEARCH&lt;/b&gt;&lt;/div&gt;&lt;div&gt;&lt;b&gt;MUTATION&lt;/b&gt;&lt;/div&gt;" style="shape=card;whiteSpace=wrap;html=1;fillColor=#ffe6cc;strokeColor=#d79b00;" vertex="1" parent="1">
          <mxGeometry x="1407" y="-680" width="80" height="106" as="geometry" />
        </mxCell>
        <mxCell id="1sHW3_Qjd_t1mg6l4qtw-2" value="&lt;b&gt;MONGO&lt;/b&gt;&lt;div&gt;&lt;b&gt;DATABASE&lt;/b&gt;&lt;/div&gt;" style="shape=cylinder3;whiteSpace=wrap;html=1;boundedLbl=1;backgroundOutline=1;size=15;" vertex="1" parent="1">
          <mxGeometry x="787" y="-840" width="80" height="80" as="geometry" />
        </mxCell>
        <mxCell id="1sHW3_Qjd_t1mg6l4qtw-3" value="PROPERTY&lt;div&gt;DATA&lt;/div&gt;" style="shape=trapezoid;perimeter=trapezoidPerimeter;whiteSpace=wrap;html=1;fixedSize=1;fillColor=#d5e8d4;strokeColor=#82b366;" vertex="1" parent="1">
          <mxGeometry x="193" y="-370" width="120" height="60" as="geometry" />
        </mxCell>
        <mxCell id="1sHW3_Qjd_t1mg6l4qtw-4" value="CHIMINIE&lt;div&gt;DATA&lt;/div&gt;" style="shape=trapezoid;perimeter=trapezoidPerimeter;whiteSpace=wrap;html=1;fixedSize=1;fillColor=#e1d5e7;strokeColor=#9673a6;" vertex="1" parent="1">
          <mxGeometry x="193" y="-700" width="120" height="60" as="geometry" />
        </mxCell>
        <mxCell id="1sHW3_Qjd_t1mg6l4qtw-5" value="&lt;b&gt;MUTATION TYPE&lt;/b&gt;" style="rounded=0;whiteSpace=wrap;html=1;" vertex="1" parent="1">
          <mxGeometry x="972" y="-520" width="120" height="60" as="geometry" />
        </mxCell>
        <mxCell id="DZtFF29IFN9_WhzmsfUE-25" style="edgeStyle=orthogonalEdgeStyle;rounded=0;orthogonalLoop=1;jettySize=auto;html=1;entryX=0.5;entryY=1;entryDx=0;entryDy=0;" edge="1" parent="1" source="1sHW3_Qjd_t1mg6l4qtw-6" target="DZtFF29IFN9_WhzmsfUE-24">
          <mxGeometry relative="1" as="geometry" />
        </mxCell>
        <mxCell id="1sHW3_Qjd_t1mg6l4qtw-6" value="&lt;div&gt;&lt;b&gt;CREATE&lt;/b&gt;&lt;/div&gt;&lt;div&gt;&lt;b&gt;SEARCH&lt;/b&gt;&lt;/div&gt;&lt;b&gt;MUTATION&lt;/b&gt;" style="rounded=0;whiteSpace=wrap;html=1;" vertex="1" parent="1">
          <mxGeometry x="767" y="-520" width="120" height="60" as="geometry" />
        </mxCell>
        <mxCell id="1sHW3_Qjd_t1mg6l4qtw-7" value="" style="endArrow=classic;html=1;rounded=0;exitX=0;exitY=0;exitDx=0;exitDy=55;exitPerimeter=0;dashed=1;dashPattern=1 1;" edge="1" parent="1" source="1sHW3_Qjd_t1mg6l4qtw-9">
          <mxGeometry width="50" height="50" relative="1" as="geometry">
            <mxPoint x="977" y="-450" as="sourcePoint" />
            <mxPoint x="1207" y="-490" as="targetPoint" />
          </mxGeometry>
        </mxCell>
        <mxCell id="1sHW3_Qjd_t1mg6l4qtw-8" value="" style="endArrow=classic;html=1;rounded=0;exitX=0.03;exitY=0.552;exitDx=0;exitDy=0;exitPerimeter=0;dashed=1;dashPattern=1 1;entryX=1;entryY=0;entryDx=0;entryDy=0;" edge="1" parent="1" source="1sHW3_Qjd_t1mg6l4qtw-1" target="1sHW3_Qjd_t1mg6l4qtw-9">
          <mxGeometry width="50" height="50" relative="1" as="geometry">
            <mxPoint x="1387" y="-489" as="sourcePoint" />
            <mxPoint x="1207" y="-490" as="targetPoint" />
          </mxGeometry>
        </mxCell>
        <mxCell id="1sHW3_Qjd_t1mg6l4qtw-9" value="&lt;b&gt;CONTROLLER&lt;/b&gt;" style="rounded=0;whiteSpace=wrap;html=1;" vertex="1" parent="1">
          <mxGeometry x="1147" y="-520" width="120" height="60" as="geometry" />
        </mxCell>
        <mxCell id="1sHW3_Qjd_t1mg6l4qtw-10" value="" style="endArrow=classic;html=1;rounded=0;exitX=0;exitY=0.5;exitDx=0;exitDy=0;dashed=1;dashPattern=1 1;entryX=1;entryY=0.5;entryDx=0;entryDy=0;" edge="1" parent="1" source="1sHW3_Qjd_t1mg6l4qtw-9" target="1sHW3_Qjd_t1mg6l4qtw-5">
          <mxGeometry width="50" height="50" relative="1" as="geometry">
            <mxPoint x="1397" y="-479" as="sourcePoint" />
            <mxPoint x="1277" y="-480" as="targetPoint" />
          </mxGeometry>
        </mxCell>
        <mxCell id="1sHW3_Qjd_t1mg6l4qtw-11" value="" style="endArrow=classic;html=1;rounded=0;exitX=0;exitY=0.5;exitDx=0;exitDy=0;dashed=1;dashPattern=1 1;entryX=1;entryY=0.5;entryDx=0;entryDy=0;" edge="1" parent="1" source="1sHW3_Qjd_t1mg6l4qtw-5" target="1sHW3_Qjd_t1mg6l4qtw-6">
          <mxGeometry width="50" height="50" relative="1" as="geometry">
            <mxPoint x="1157" y="-480" as="sourcePoint" />
            <mxPoint x="1102" y="-480" as="targetPoint" />
          </mxGeometry>
        </mxCell>
        <mxCell id="1sHW3_Qjd_t1mg6l4qtw-12" value="&lt;font style=&quot;font-size: 36px;&quot;&gt;SEARCH MUTATION&lt;/font&gt;" style="rounded=0;whiteSpace=wrap;html=1;fillColor=#f5f5f5;fontColor=#333333;strokeColor=#666666;" vertex="1" parent="1">
          <mxGeometry x="340" y="-1000" width="990" height="60" as="geometry" />
        </mxCell>
        <mxCell id="1sHW3_Qjd_t1mg6l4qtw-13" value="" style="endArrow=classic;html=1;rounded=0;dashed=1;dashPattern=1 1;entryX=0.5;entryY=1;entryDx=0;entryDy=0;entryPerimeter=0;exitX=0.5;exitY=0;exitDx=0;exitDy=0;" edge="1" parent="1" source="DZtFF29IFN9_WhzmsfUE-24" target="1sHW3_Qjd_t1mg6l4qtw-2">
          <mxGeometry width="50" height="50" relative="1" as="geometry">
            <mxPoint x="827" y="-640" as="sourcePoint" />
            <mxPoint x="897" y="-480" as="targetPoint" />
          </mxGeometry>
        </mxCell>
        <mxCell id="1sHW3_Qjd_t1mg6l4qtw-18" value="&lt;b&gt;GRAPHQL&lt;/b&gt;&lt;div&gt;&lt;b&gt;RESPONSE&lt;/b&gt;&lt;/div&gt;" style="shape=card;whiteSpace=wrap;html=1;fillColor=#ffe6cc;strokeColor=#d79b00;" vertex="1" parent="1">
          <mxGeometry x="1417" y="-450" width="80" height="106" as="geometry" />
        </mxCell>
        <mxCell id="1sHW3_Qjd_t1mg6l4qtw-19" value="" style="endArrow=classic;html=1;rounded=0;dashed=1;dashPattern=1 1;entryX=0;entryY=0;entryDx=0;entryDy=68;entryPerimeter=0;exitX=1;exitY=1;exitDx=0;exitDy=0;" edge="1" parent="1" source="1sHW3_Qjd_t1mg6l4qtw-9" target="1sHW3_Qjd_t1mg6l4qtw-18">
          <mxGeometry width="50" height="50" relative="1" as="geometry">
            <mxPoint x="1227" y="-400" as="sourcePoint" />
            <mxPoint x="1263" y="-510" as="targetPoint" />
          </mxGeometry>
        </mxCell>
        <mxCell id="DZtFF29IFN9_WhzmsfUE-13" style="edgeStyle=orthogonalEdgeStyle;rounded=0;orthogonalLoop=1;jettySize=auto;html=1;entryX=0.5;entryY=1;entryDx=0;entryDy=0;dashed=1;dashPattern=1 1;" edge="1" parent="1" source="DZtFF29IFN9_WhzmsfUE-1" target="1sHW3_Qjd_t1mg6l4qtw-4">
          <mxGeometry relative="1" as="geometry">
            <mxPoint x="383" y="-620" as="targetPoint" />
          </mxGeometry>
        </mxCell>
        <mxCell id="DZtFF29IFN9_WhzmsfUE-14" style="edgeStyle=orthogonalEdgeStyle;rounded=0;orthogonalLoop=1;jettySize=auto;html=1;entryX=0.5;entryY=0;entryDx=0;entryDy=0;dashed=1;dashPattern=1 1;" edge="1" parent="1" source="DZtFF29IFN9_WhzmsfUE-1" target="1sHW3_Qjd_t1mg6l4qtw-3">
          <mxGeometry relative="1" as="geometry">
            <mxPoint x="383" y="-410" as="targetPoint" />
          </mxGeometry>
        </mxCell>
        <mxCell id="DZtFF29IFN9_WhzmsfUE-1" value="&lt;b&gt;HTTPARTY&lt;/b&gt;" style="rounded=0;whiteSpace=wrap;html=1;fillColor=#f8cecc;strokeColor=#b85450;" vertex="1" parent="1">
          <mxGeometry x="193" y="-530" width="120" height="60" as="geometry" />
        </mxCell>
        <mxCell id="DZtFF29IFN9_WhzmsfUE-7" value="&lt;b&gt;CHIMINIE DATA&lt;/b&gt;&lt;div&gt;&lt;b&gt;SERVICE&lt;/b&gt;&lt;/div&gt;" style="shape=hexagon;perimeter=hexagonPerimeter2;whiteSpace=wrap;html=1;fixedSize=1;fillColor=#f5f5f5;fontColor=#333333;strokeColor=#666666;" vertex="1" parent="1">
          <mxGeometry x="423" y="-620" width="120" height="80" as="geometry" />
        </mxCell>
        <mxCell id="DZtFF29IFN9_WhzmsfUE-8" value="&lt;b&gt;PROPERTY DATA&lt;/b&gt;&lt;div&gt;&lt;b&gt;SERVICE&lt;/b&gt;&lt;/div&gt;" style="shape=hexagon;perimeter=hexagonPerimeter2;whiteSpace=wrap;html=1;fixedSize=1;fillColor=#f5f5f5;fontColor=#333333;strokeColor=#666666;" vertex="1" parent="1">
          <mxGeometry x="423" y="-445" width="120" height="80" as="geometry" />
        </mxCell>
        <mxCell id="DZtFF29IFN9_WhzmsfUE-9" value="" style="endArrow=classic;html=1;rounded=0;exitX=0;exitY=0.25;exitDx=0;exitDy=0;entryX=1;entryY=0.5;entryDx=0;entryDy=0;dashed=1;dashPattern=1 1;" edge="1" parent="1" source="1sHW3_Qjd_t1mg6l4qtw-6" target="DZtFF29IFN9_WhzmsfUE-7">
          <mxGeometry width="50" height="50" relative="1" as="geometry">
            <mxPoint x="727" y="-520" as="sourcePoint" />
            <mxPoint x="773" y="-670" as="targetPoint" />
          </mxGeometry>
        </mxCell>
        <mxCell id="DZtFF29IFN9_WhzmsfUE-10" value="" style="endArrow=classic;html=1;rounded=0;exitX=0;exitY=0.75;exitDx=0;exitDy=0;entryX=1;entryY=0.5;entryDx=0;entryDy=0;dashed=1;dashPattern=1 1;" edge="1" parent="1" source="1sHW3_Qjd_t1mg6l4qtw-6" target="DZtFF29IFN9_WhzmsfUE-8">
          <mxGeometry width="50" height="50" relative="1" as="geometry">
            <mxPoint x="727" y="-460" as="sourcePoint" />
            <mxPoint x="653" y="-570" as="targetPoint" />
          </mxGeometry>
        </mxCell>
        <mxCell id="DZtFF29IFN9_WhzmsfUE-11" value="" style="endArrow=classic;html=1;rounded=0;exitX=0;exitY=0.5;exitDx=0;exitDy=0;entryX=1;entryY=0.5;entryDx=0;entryDy=0;dashed=1;dashPattern=1 1;" edge="1" parent="1" source="DZtFF29IFN9_WhzmsfUE-7" target="DZtFF29IFN9_WhzmsfUE-1">
          <mxGeometry width="50" height="50" relative="1" as="geometry">
            <mxPoint x="737" y="-510" as="sourcePoint" />
            <mxPoint x="653" y="-570" as="targetPoint" />
          </mxGeometry>
        </mxCell>
        <mxCell id="DZtFF29IFN9_WhzmsfUE-12" value="" style="endArrow=classic;html=1;rounded=0;exitX=0;exitY=0.5;exitDx=0;exitDy=0;entryX=1;entryY=0.5;entryDx=0;entryDy=0;dashed=1;dashPattern=1 1;" edge="1" parent="1" source="DZtFF29IFN9_WhzmsfUE-8" target="DZtFF29IFN9_WhzmsfUE-1">
          <mxGeometry width="50" height="50" relative="1" as="geometry">
            <mxPoint x="533" y="-570" as="sourcePoint" />
            <mxPoint x="453" y="-490" as="targetPoint" />
          </mxGeometry>
        </mxCell>
        <mxCell id="DZtFF29IFN9_WhzmsfUE-29" style="edgeStyle=orthogonalEdgeStyle;rounded=0;orthogonalLoop=1;jettySize=auto;html=1;entryX=0.5;entryY=1;entryDx=0;entryDy=0;dashed=1;dashPattern=1 1;" edge="1" parent="1" source="DZtFF29IFN9_WhzmsfUE-15" target="DZtFF29IFN9_WhzmsfUE-17">
          <mxGeometry relative="1" as="geometry" />
        </mxCell>
        <mxCell id="DZtFF29IFN9_WhzmsfUE-15" value="Mock Data&lt;div&gt;Middleware&lt;/div&gt;" style="rounded=0;whiteSpace=wrap;html=1;rotation=-90;fillColor=#fff2cc;strokeColor=#d6b656;" vertex="1" parent="1">
          <mxGeometry x="589.75" y="-511.75" width="173.75" height="45" as="geometry" />
        </mxCell>
        <mxCell id="DZtFF29IFN9_WhzmsfUE-17" value="Mock Data&lt;div&gt;JSON&lt;/div&gt;" style="ellipse;whiteSpace=wrap;html=1;align=center;newEdgeStyle={&quot;edgeStyle&quot;:&quot;entityRelationEdgeStyle&quot;,&quot;startArrow&quot;:&quot;none&quot;,&quot;endArrow&quot;:&quot;none&quot;,&quot;segment&quot;:10,&quot;curved&quot;:1,&quot;sourcePerimeterSpacing&quot;:0,&quot;targetPerimeterSpacing&quot;:0};treeFolding=1;treeMoving=1;fillColor=#fff2cc;strokeColor=#d6b656;" vertex="1" parent="1">
          <mxGeometry x="626.63" y="-700" width="100" height="40" as="geometry" />
        </mxCell>
        <mxCell id="DZtFF29IFN9_WhzmsfUE-21" value="Duplicate Search" style="rounded=0;whiteSpace=wrap;html=1;rotation=-90;fillColor=#fff2cc;strokeColor=#d6b656;" vertex="1" parent="1">
          <mxGeometry x="943" y="-680" width="171.37" height="28.5" as="geometry" />
        </mxCell>
        <mxCell id="DZtFF29IFN9_WhzmsfUE-24" value="&lt;div&gt;&lt;b&gt;SEARCH&lt;/b&gt;&lt;/div&gt;&lt;div&gt;&lt;b&gt;MODEL&lt;/b&gt;&lt;/div&gt;" style="rounded=0;whiteSpace=wrap;html=1;" vertex="1" parent="1">
          <mxGeometry x="767" y="-699" width="120" height="60" as="geometry" />
        </mxCell>
        <mxCell id="DZtFF29IFN9_WhzmsfUE-28" style="edgeStyle=orthogonalEdgeStyle;rounded=0;orthogonalLoop=1;jettySize=auto;html=1;entryX=0;entryY=0.5;entryDx=0;entryDy=0;dashed=1;dashPattern=1 1;" edge="1" parent="1" source="DZtFF29IFN9_WhzmsfUE-26" target="DZtFF29IFN9_WhzmsfUE-15">
          <mxGeometry relative="1" as="geometry" />
        </mxCell>
        <mxCell id="DZtFF29IFN9_WhzmsfUE-26" value="check&lt;div&gt;ENV&lt;/div&gt;" style="rhombus;whiteSpace=wrap;html=1;fillColor=#f5f5f5;strokeColor=#666666;fontColor=#333333;" vertex="1" parent="1">
          <mxGeometry x="632.35" y="-331" width="88.55" height="80" as="geometry" />
        </mxCell>
      </root>
    </mxGraphModel>
  </diagram>
</mxfile>
